<?xml version="1.0" encoding="UTF-8"?>
<svg width="512" height="512" viewBox="0 0 512 512" xmlns="http://www.w3.org/2000/svg">
  <defs>
    <linearGradient id="g" x1="0" y1="0" x2="1" y2="1">
      <stop offset="0%" stop-color="#4CAF50"/>
      <stop offset="100%" stop-color="#43A047"/>
    </linearGradient>
  </defs>
  <rect width="512" height="512" rx="96" fill="url(#g)"/>

  <!-- Wallet shape -->
  <rect x="96" y="176" width="320" height="192" rx="24" fill="#FFFFFF" opacity="0.95"/>
  <rect x="120" y="208" width="272" height="128" rx="16" fill="#E8F5E9"/>
  <circle cx="360" cy="272" r="16" fill="#4CAF50"/>
  <rect x="88" y="152" width="224" height="56" rx="20" fill="#FFFFFF" opacity="0.95"/>

  <!-- D letter -->
  <path d="M180 356 v-144 h64 c44 0 80 36 80 80s-36 64-80 64h-64z m48-40 h16 c28 0 48-12 48-40s-20-40-48-40h-16v80z" fill="#4CAF50"/>

  <!-- Subtle shadow -->
  <ellipse cx="256" cy="416" rx="160" ry="20" fill="#000" opacity="0.06"/>
</svg>


